/* XPM */
static char *result[] = {
/* columns rows colors chars-per-pixel */
"50 50 21 1 ",
"  c #131415",
". c #181919",
"X c #1A1B1B",
"o c #171D21",
"O c #252424",
"+ c #282827",
"@ c #2D3037",
"# c #383C3F",
"$ c #3F3F3F",
"% c #4A3B2C",
"& c #524133",
"* c #584633",
"= c #5D4939",
"- c #64503B",
"; c #41693D",
": c #497745",
"> c #696468",
", c gray46",
"< c #50844B",
"1 c #589052",
"2 c #BABDB9",
/* pixels */
"##@@##o@@@@@@@@@>,>##@@@#######o@@@@@@@@#####o@@@#",
"#o@@@@@@@@@@@>@@@@##o@@@@@@##oo@@@>,@@@@@@@oo@@@@@",
"o@@@@>@@@@@@,--*@@@@@@@<<<<@@@@@@>,##@@@@@@@>>@@@@",
"@@@>,,>@@@@,-***%@@@@1<<<<<<<>,@@@###@@@@@>>,>#@@@",
"@@>,,>,#@@@-*****%@@1<<<<<<<<<>#@@@@@@@@@>>,>##@@@",
"@@,##>##@@@-*****%@@<<<2222<<<@@@@@@@@@@@>,,##o@@@",
"@@>#>###@@@-******%1<<22$$22<<<@@@>>@@@@>,#>#oo@@>",
"@@#####o@@@@******1:<<22$$22<<::@>,,>@@@>####o@@>,",
"#@@###o@@@@@@*****%#<<<2222<<<@>,,>,>#@@>#>#oo@>,>",
"#@@@oo@@@@@@@>*****%<<<<<<<<<<>,>,>#>#@@>>###o@>,#",
"#@@@@@@@@@@@@@@****%<<<<<<<<<<>##>>###@@@####o@@##",
"@@@@@@,>@@@@@@@@****#<<;;2;<<@>#>###oo@@@@##oo@@@@",
"@@@@@,>#@@@@@@@@@***%:<<<<<<;<<<##oo@@@@@@ooo@@@@@",
"@@@@>##@@@@@@@@@1<***<:<<<<;<<<<<<@@@@@@@@@@@@@@@@",
"@@@@@@@@@@@>>@@1<<<**%<::;;<<<<<<<:@@@@@@@@@@@@@@@",
">@@@@@@@@>>,,,1<<<:;;:<<<<<<<<<<<<<:>,>>>>@@@@@@@>",
">,@@@@@@@>,>>>1<<:;<<<:<<<<<<<<<<<<:,>>,,,>@@@@@@>",
",#@@@@@@>,>>,#<<::<<<:;<<<<<<<<<<<<<:>,>>,>#o@@@>,",
">#o@@@@@>##,>#<<<<<<<<;<<<<<:<<<<<<<:,>##>##o@@@>,",
"##o@@@@@>,#>##<<<<<<;;<<<<<<<<<<<<<<<:>>###oo@@@##",
"#o@@@@@@@#####<<<<<;<<<<<<<<<<<<@<<<<<>####o@@@@@#",
"o@@@>>@@@@####<<<<;<<<<<<<<<<<<<@#<<<<:####o@@@@@@",
"@@@@,,>@@@ooooo<<;<<<<<<<<<<<<<:@@<<<<<###oo@@@@@@",
"@@@@>,##@@@@oo@@>@<<<<<<<<<<<<<:@@@<<<<oooo@@@@@@@",
">>@@@#>#o@@@@@@>,@<<<<<<<<<<<<<:@@@<<<<:@@@@@@@@@@",
"#,#@@###o@@@@@>,,><<<<<<:<<<<<<:@@@@<<<<@@@@@>>@@@",
"@#o@@@#o@@@@@>,###<<<<<<;<<<<<<:>>>><:<<@@@@>>,>@@",
"@@@@@@@@@@@@@>#>#o<<<<<<<<<<<<<:>,,><;<<@@@>>,>,>@",
"@@@@@@@@@@@@@@###o<<<<<<<<<<<<<:,,,,#<<o@@@>,,>,>@",
"@@>>,,>>@@@@@@@#o@<<<<<<<<<<<<<:>#>>###o@@@>,>>>,#",
"@>,,>,,>#@@@@@@@@@============&&#######o@@@@,##,##",
"@>,>#>>##@@@@@@@@@<<<========<<:######o@@@@@>>#>##",
"@,###>>##o@@@@@@@@<<<<=====&<<<:oooooo@@@@@@@####o",
"@>>#>###o@@@@>>>>@<<<<====&<<<<:@@@@@@@@>>@@@@##o@",
"@@######o@@@>>,,,><<<<<===&<<<<:@@@@@@@>>,,,@@oo@@",
"@@@@##ooo@@>,,#>>,<<<<:@=&o<<<<:@@@@@@>>,>,#@@@@@@",
"@@@@oooo@@>,>,##>><<<<:@=@@<<<<<>@@@@@>,##>##@@@@@",
"@@@@@oo@@@>>#>#>>#<<<<:@@@@<<<<<,#o@@@>,#>###@@@@>",
">>@@@@@@@@@#######<<<<:@@@@<<<<:>#o@@@@#####o@@@>>",
",>>@@@@@@@@@@####o<<<<:@@@@<<<<:##o@@@@@o##o@@@>>,",
",,>#@@@@@@@@@oooo <<<<:O@@@<<<<:#o@@@@@@@ooo@@@>,>",
">###o@@@>>@@@@@o .<<<<<+O..<<<<;o@@@>>@@@@ooo@@>,>",
"#>##o@@>,,>>@@o ..;:<::OX .::<:;.@>>>,>>@o@@oo@@>#",
"###o@@>,>>,,#@o .::<:<<XX .<<:<::O+,,,#,>o@>>oo@##",
"###o@@>,##>##X ...<:O:<X ..<:.:<O+XXO>#,#o@>,#ooo#",
"#o@@@@>,#>###oo....XXX  ........+OX,>####o@@###ooo",
"o@@@@@@#####oo@@@...  ...OOOO....#######o@@@@oo@@@",
"@@@@@@@@##ooo@@@@@@@....OO+++O@@@@@###oo@@>>@@@@@@",
",@@@>>@@ooo@@@@@@>@@@@@>>,##>>#o@@@ooo@@>>,>#@@@@@",
"#@@>#,#@@@@@@@@@>,,#@@@>,>>#>##o@@@@@@@>,,>###@@@>"
};
