/* XPM */
static char *result[] = {
/* columns rows colors chars-per-pixel */
"50 50 33 1 ",
"  c #131415",
". c #181919",
"X c #1A1B1B",
"o c #37271A",
"O c #171D21",
"+ c #252424",
"@ c #282827",
"# c #2D3037",
"$ c #383C3F",
"% c #402F20",
"& c #592B2F",
"* c #5E2E32",
"= c #6C3337",
"- c #74393E",
"; c #5D5B2C",
": c #524131",
"> c #5A4736",
", c #614D3B",
"< c #6A6731",
"1 c #7B3D42",
"2 c #4B4244",
"3 c #4F4548",
"4 c #5A4841",
"5 c #564C4E",
"6 c #5D5153",
"7 c #604C45",
"8 c #625758",
"9 c #696468",
"0 c gray46",
"q c #BA8A77",
"w c #466A8B",
"e c #B6B6B9",
"r c #DB9D87",
/* pixels */
"$$##$$O#########909$$###$$$$$$$O########$$$$$O###$",
"$O###########9####$$O######$$OO###90#######OO#####",
"O####9######09$########99########90$$#######99####",
"###9009####09$$#######9909###90###$$8#####9909$###",
"##90090$###$$$########9>>>>###9$###86####9909$$###",
"##0$$9$$####$########,>>>>>>>######86####900$$O###",
"##9$9$$$#######999##,>>>>>>>>:####966###90$9$OO##9",
"##$$$$$O######90099#>>>>>>>>::###9066###9$$$$O##90",
"$##$$$O######9099$9$>>>rrrr:::#900966$##9$9$OO#909",
"$###OO#######909$9$$>rrrrrrrr:9090966$##99$$$O#90$",
"$##############$$$$$>rewrrwer:9$$9965$###$$$$O##$$",
"######09#########O$$rrrrrrrrrq9$9$$65O####$$OO####",
"#####09$##########OOrrrrrrrrrq#$$$O66#####OOO#####",
"####9$$##############rrrrrrrq##OOO#65#############",
"###########99####1==--rrqqrq**==-##65#############",
"9########990000#1===---rrrr**-===-#6509999#######9",
"90#######9099991=====----**--=====-65990009######9",
"0$######90990$-=======------=======65909909$O###90",
"9$O#####9$$09$==========--=========6509$$9$$O###90",
"$$O#####90$9$-====&=====--=========65099$$$OO###$$",
"$O#######$$$$====&=====----=====#=&6509$$$$O#####$",
"O###99####$$$====&====--==--====#$3332$$$$$O######",
"####009###OO====&#=====----====&#333332$$$OO######",
"####90$$####===&9#======--=====&##&rqqOOOOO#######",
"99###$9$O##====&0#======--=====&##&rrr############",
"$0$##$$$O##===&009=====----====&###44=#######99###",
"#$O###$O###===&$$$====--==--===&99977&######9909##",
"##########====&9$O===--====--==&9007709####990909#",
"##########===&$$$O====--==--===&0000$9$O###900909#",
"##990099##===&#$O#======--=====&9$99$$$O###909990$",
"#9009009$#rrrr####==<<<<<<<<<<<;$$$$$$$O####0$$0$$",
"#909$99$$#rrrq####<<<<<<<<<<<<<;$$$$$$O#####99$9$$",
"#0$$$99$$Orrq#####<<<<<;0$<<<<<;OOOOOO#######$$$$O",
"#99$9$$$O####9999#<<<<<;$9<<<<<;########99####$$O#",
"##$$$$$$O###990009<<<<<;$$<<<<<;#######99000##OO##",
"####$$OOO##900$990<<<<;#OOO<<<<;######99090$######",
"####OOOO##9090$$99<<<<;####<<<<;9#####90$$9$$#####",
"#####OO###99$9$99$<<<<;####<<<<<0$O###90$9$$$####9",
"99#########$$$$$$$<<<;;####<<<<<9$O####$$$$$O###99",
"099##########$$$$%%%%;;####<<oooo$O#####O$$O###990",
"009$#########OOOOO%%%oo9###%%%oo$O#######OOO###909",
"9$$$O###99#####OO#o%%%o@+..%%%%oO###99####OOO##909",
"$9$$O##90099##OO#.%%%%o+X .%%%%o.#999099#O##OO##9$",
"$$$O##909900$#O %%%%%%oXX .%%%%%oo@000$09O#99OO#$$",
"$$$O##90$$9$$X .%%%%%%oX ..%%%%%%oXX+9$0$O#90$OOO$",
"$O####90$9$$$OO....XXX  ........@+X09$$$$O##$$$OOO",
"O######$$$$$OO###...  ...++++....$$$$$$$O####OO###",
"########$$OOO#######....++@@@+#####$$$OO##99######",
"0###99##OOO######9#####990$$99$O###OOO##9909$#####",
"$##9$0$#########900$###9099$9$$O#######9009$$$###9"
};
