/* XPM */
static char *result[] = {
/* columns rows colors chars-per-pixel */
"50 50 17 1 ",
"  c #171D21",
". c #262523",
"X c #282725",
"o c #282825",
"O c #2D2B29",
"+ c #2E2D2A",
"@ c #2D3037",
"# c #383C3F",
"$ c #696468",
"% c gray46",
"& c #DA9039",
"* c #FFA83F",
"= c #FFB248",
"- c #FBC544",
"; c #FFC744",
": c #FECF63",
"> c #FFEBB1",
/* pixels */
"##@@## @@@@@@@@@$%$##@@@####### @@@@@@@@##### @@@#",
"# @@@@@@@@@@@$@@@@## @@@@@@##  @@@$%@@@@@@@  @@@@@",
" @@@@$@@@@@@%$#@@@@@@@@$$@@@@@@@@$%##@@@@@@@$$@@@@",
"@@@$%%$@@@@%$##@@@@@@@$$%$@@@$%@@@###@@@@@$$%$#@@@",
"@@$%%$%#@@@###@@@@@@@@$%$%%@@@$#@@@@@@@@@$$%$##@@@",
"@@%##$##@@@@#@@@@@@@@@$%##%#@@@@@@@@@@@@@$%%## @@@",
"@@$#$###@@@@@@@$$$@@@@@$#$## @@@@@$$@@@@$%#$#  @@$",
"@@##### @@@@@@$%%$$@@********@@@@$%%$@@@$#### @@$%",
"#@@### @@@@@@$%$$#$**--------**&%%$%$#@@$#$#  @$%$",
"#@@@  @@@@@@@$%$#**------------**&$#$#@@$$### @$%#",
"#@@@@@@@@@@@@@@#*>---------------*&###@@@#### @@##",
"@@@@@@%$@@@@@@@*>-----======------*&  @@@@##  @@@@",
"@@@@@%$#@@@@@@*>----==;;;;;;==-----*&@@@@@   @@@@@",
"@@@@$##@@@@@@@*>---=:;;;;;;;;;*----*&@@@@@@@@@@@@@",
"@@@@@@@@@@@$$*>--;=:;;;;;;;;;;;*----*&@@@@@@@@@@@@",
"$@@@@@@@@$$%%*>--=:;;;;;;;;;;;;;*---*&$$$$@@@@@@@$",
"$%@@@@@@@$%$*>---=:;;;;;;;;;;;;;*----*&%%%$@@@@@@$",
"%#@@@@@@$%$$*>--=:;;;;;;;;;;;;;;;*---*&$$%$# @@@$%",
"$# @@@@@$##%*---=:;;;;;;;;;;;;;;;*---*&##$## @@@$%",
"## @@@@@$%#$*>--=;;;;;;;;;;;;;;;;*---*&$###  @@@##",
"# @@@@@@@###*---=;;;;;;;;;;;;;;;;*---*&#### @@@@@#",
" @@@$$@@@@##*---=;;;;;;;;;;;;;;;;*---*&#### @@@@@@",
"@@@@%%$@@@  *---=;;;;;;;;;;;;;;;;*---*&###  @@@@@@",
"@@@@$%##@@@@*----*;;;;;;;;;;;;;;*----*&    @@@@@@@",
"$$@@@#$# @@@@*---*;;;;;;;;;;;;;;*---*&&@@@@@@@@@@@",
"#%#@@### @@@@*----*;;;;;;;;;;;;*----*&@@@@@@@$$@@@",
"@# @@@# @@@@@$*----*;;;;;;;;;;*----*&&@@@@@@$$%$@@",
"@@@@@@@@@@@@@$*-----**;;;;;;**-----*&%$@@@@$$%$%$@",
"@@@@@@@@@@@@@@#*------******------*&&$# @@@$%%$%$@",
"@@$$%%$$@@@@@@@#*----------------*&&### @@@$%$$$%#",
"@$%%$%%$#@@@@@@@@**------------**&&#### @@@@%##%##",
"@$%$#$$##@@@@@@@@@@**--------**&&##### @@@@@$$#$##",
"@%###$$## @@@@@@@@@@$********&&@      @@@@@@@#### ",
"@$$#$### @@@@$$$$@@@@@$##$## @@@@@@@@@@@$$@@@@## @",
"@@###### @@@$$%%%$@@@@@ #### @@@@@@@@@@$$%%%@@  @@",
"@@@@##   @@$%%#$$%#@@@@@    @@@@@@@@@@$$%$%#@@@@@@",
"@@@@    @@$%$%##$$# @@@@@@@@@@$$$@@@@@$%##$##@@@@@",
"@@@@@  @@@$$#$#$$##.XXXXXXXXXO+++# @@@$%#$###@@@@$",
"$$@@@@@@@@@#####oo..XXXXXXXXO+oOOo.X@@@##### @@@$$",
"%$$@@@@@@@@@@#ooo..XXXXXXXXO+oOooo.XXX@@ ## @@@$$%",
"%%$#@@@@@@@@@   ..XXXOOOXXXXooooo.XX@@@@@   @@@$%$",
"$### @@@$$@@@@@  @@XO+++OXXXXXo..@@@$$@@@@   @@$%$",
"#$## @@$%%$$@@  @@@$%$%$# @@@@@@@@$$$%$$@ @@  @@$#",
"### @@$%$$%%#@  @@$%##$## @@@@@@@$%%%%#%$ @$$  @##",
"### @@$%##$### @@@#%$### @@@@@@@$%##$$#%# @$%#   #",
"# @@@@$%#$###  @@@@###  @@@@@@@@%$#%$#### @@###   ",
" @@@@@@#####  @@@@@@  @@@$$$$@@@@####### @@@@  @@@",
"@@@@@@@@##   @@@@@@@@@@@$$%%%$@@@@@###  @@$$@@@@@@",
"%@@@$$@@   @@@@@@$@@@@@$$%##$$# @@@   @@$$%$#@@@@@",
"#@@$#%#@@@@@@@@@$%%#@@@$%$$#$## @@@@@@@$%%$###@@@$"
};
