/* XPM */
static char *result[] = {
/* columns rows colors chars-per-pixel */
"25 25 14 1 ",
"  c black",
". c gray3",
"X c #484848",
"o c #606060",
"O c #686868",
"+ c gray47",
"@ c #979797",
"# c #A7A7A7",
"$ c gray78",
"% c #DFDFDF",
"& c #E7E7E7",
"* c #EFEFEF",
"= c gray97",
"- c white",
/* pixels */
"                         ",
"                         ",
"           o%-%o         ",
"       X%------=         ",
"      X*-------=o        ",
"     X*-----$---=        ",
"     &---@   +---o       ",
"    O---@     =--=       ",
"    &--#      +---o      ",
"    ---.       =--=      ",
"    ---        +---      ",
"    ---        X---      ",
"    ---        &---      ",
"    ---        ---@      ",
"    ---o      X---       ",
"    =---%o   X*---       ",
"    +------------@       ",
"     +----------@        ",
"       +-------@         ",
"                         ",
"                         ",
"                         ",
"                         ",
"                         ",
"                         "
};
