/* XPM */
static char *result[] = {
/* columns rows colors chars-per-pixel */
"25 25 10 1 ",
"  c black",
". c #484848",
"X c #606060",
"o c gray47",
"O c #979797",
"+ c #DFDFDF",
"@ c #E7E7E7",
"# c #EFEFEF",
"$ c gray97",
"% c white",
/* pixels */
"                         ",
"                         ",
"                         ",
"                         ",
"      .+%%%%+X           ",
"     .#%%%%%%$X          ",
"     @%%%%%%%%$          ",
"     %%%O  o%%%          ",
"     %%%    %%%          ",
"     $%%    %%%          ",
"     o%O   .%%%          ",
"          .#%%%          ",
"        .+%%%%O          ",
"       .#%%%%O           ",
"      .#%%%%O            ",
"      @%%%O              ",
"      %%%%%+X            ",
"      $%%%%%%%%%%%+X     ",
"      o%%%%%%%%%%%%$     ",
"          o%%%%%%%%O     ",
"                         ",
"                         ",
"                         ",
"                         ",
"                         "
};
