/* XPM */
static char *result[] = {
/* columns rows colors chars-per-pixel */
"25 25 13 1 ",
"  c black",
". c gray3",
"X c #484848",
"o c #606060",
"O c #686868",
"+ c gray47",
"@ c #979797",
"# c #A7A7A7",
"$ c gray75",
"% c #DFDFDF",
"& c #E7E7E7",
"* c gray97",
"= c white",
/* pixels */
"                         ",
"                         ",
"                         ",
"                         ",
"          X%%o           ",
"          &==*           ",
"         O===@           ",
"         &==#            ",
"         ===.            ",
"        X===             ",
"        &===             ",
"        ===@             ",
"        ===              ",
"        ===              ",
"        ===o   X$o       ",
"        *==*   &=*       ",
"        +===o  ===       ",
"         *===%o===       ",
"         +========o      ",
"          +=======*      ",
"            +=====@      ",
"               ===       ",
"               *==       ",
"               +=@       ",
"                         "
};
