/* XPM */
static char *result[] = {
/* columns rows colors chars-per-pixel */
"25 25 11 1 ",
"  c black",
". c #484848",
"X c #606060",
"o c gray47",
"O c gray53",
"+ c #979797",
"@ c gray78",
"# c #DFDFDF",
"$ c #E7E7E7",
"% c gray97",
"& c white",
/* pixels */
"                         ",
"                         ",
"                         ",
"       .#&&&&&&&#X       ",
"       $&&&&&&&&&%       ",
"       &&&&&&&&&&+       ",
"       &&&               ",
"       &&&               ",
"       &&&               ",
"       &&&O#&#X          ",
"       %&&&&&&&#X        ",
"       o&&&&&&&&%X       ",
"        o&&&@&&&&%       ",
"              o&&&X      ",
"               %&&%      ",
"               o&&&      ",
"                &&&      ",
"                &&&      ",
"        .#&&&&&&&&&      ",
"        #&&&&&&&&&&      ",
"        o&&&&&&&&&+      ",
"                         ",
"                         ",
"                         ",
"                         "
};
