/* XPM */
static char *result[] = {
/* columns rows colors chars-per-pixel */
"25 25 13 1 ",
"  c black",
". c #484848",
"X c #606060",
"o c gray47",
"O c #979797",
"+ c #9F9F9F",
"@ c gray78",
"# c #DFDFDF",
"$ c #E7E7E7",
"% c gray91",
"& c #EFEFEF",
"* c gray97",
"= c white",
/* pixels */
"                         ",
"                         ",
"                         ",
"                         ",
"        .#=#X            ",
"    .#=======#X          ",
"    $=========*X         ",
"    *=====@====*         ",
"    o=O     o===X        ",
"             *==*        ",
"             +===        ",
"             $===        ",
"             ===O        ",
"      .#====%===         ",
"      #==========#X      ",
"      o===========*      ",
"         .&=======O      ",
"        .&===O           ",
"      .#====O            ",
"     .&====O             ",
"     #====O              ",
"     o==O                ",
"                         ",
"                         ",
"                         "
};
