/* XPM */
static char *result[] = {
/* columns rows colors chars-per-pixel */
"25 25 12 1 ",
"  c black",
". c gray3",
"X c #484848",
"o c #606060",
"O c gray47",
"+ c gray56",
"@ c #979797",
"# c #DFDFDF",
"$ c #E7E7E7",
"% c #EFEFEF",
"& c gray97",
"* c white",
/* pixels */
"                         ",
"        X#*****#o        ",
"      X#********&o       ",
"      $**********&       ",
"     X****@   O***o      ",
"     $***      $**&      ",
"     ***@      ****o     ",
"     ***#o     ****&     ",
"     &***&o    &****     ",
"     O**************     ",
"       O***********@     ",
"        O**********O     ",
"                +**&     ",
"                .***o    ",
"                 &**&    ",
"                 O***    ",
"                  ***    ",
"                  ***    ",
"                X#***    ",
"               X%****    ",
"        X#**********@    ",
"        #*********@      ",
"        O********@       ",
"                         ",
"                         "
};
