/* XPM */
static char *result[] = {
/* columns rows colors chars-per-pixel */
"50 50 15 1 ",
"  c #171D21",
". c #1C1C20",
"X c #1D1D21",
"o c #1D1E22",
"O c #202024",
"+ c #212124",
"@ c #242429",
"# c #29292F",
"$ c #2F2F36",
"% c #2D3037",
"& c #383C3F",
"* c #3B3B44",
"= c #4E4E5B",
"- c #696468",
"; c gray46",
/* pixels */
"&&%%&& %%%%%%%%%-;-&&%%%&&&&&&& %%%%%%%%&&&&& %%%&",
"& %%%%%%%%%%%-%%%%&& %%%%%%&&  %%%-;%%%%%%%  %%%%%",
" %%%%-%%%%%%;-&%%%%%%%%--%%%%%%%%-;&&%%%%%%%--%%%%",
"%%%-;;-%%%%;-&&%%%%%%%--;-%%%-;%%%&&&%%%%%--;-&%%%",
"%%-;;-;&%%%&&&%%%%%%%%-;-;;%%%-&%%%%%%%%%--;-&&%%%",
"%%;&&-&&%%%%&%%%%%%%@#@@@@;&%%%%%%%%%%%%%-;;&& %%%",
"%%-&-&&&%%%%%%%---@@****==@@ %%%%%--%%%%-;&-&  %%-",
"%%&&&&& %%%%%%-;@@*********=@@@@@-;;-%%%-&&&& %%-;",
"&%%&&& %%%%%%-;@*************====@@;-&%%-&-&  %-;-",
"&%%%  %%%%%%%-@*******************=@@&%%--&&& %-;&",
"&%%%%%%%%%%%%@**********************=@@%%&&&& %%&&",
"%%%%%%;-%%%@@*************************=@@%&&  %%%%",
"%%%%%;-&%%.$$***************************=@   %%%%%",
"%%%%-&&%%.$$$$$***************************@%%%%%%%",
"%%%%%%%%%.$$$$$$$**************************.%%%%%%",
"-%%%%%%%%.$$$$$$$$$************************.%%%%%-",
"-;%%%%%%%.$$$$$$$$$$$$==*****************$$.%%%%%-",
";&%%%%%%-.$$$$$$$$$$$$$$$$====******$$$$$$$. %%%-;",
"-& %%%%%.$$$$$$#$$$$$$$$$$$$$$$$$$$$$$$$$###.%%%-;",
"&& %%%%%.$$$$$$$##$$$$$$$$$$$$$$$$$$$$####@@@.%%&&",
"& %%%%%%.#$$$$$$$#$$$$$$$$$$$$$$$$#####@@@#*#.%%%&",
" %%%--%.**##$$$$$$$#$$$$$$$$$$$$####@@@******.%%%%",
"%%%%;;.*****##$$$$$$$$$$$$$$$$####@*********$.%%%%",
"%%%%-.$*******#$$$$$$$$$$$$$$###***********$$$.%%%",
"--%%%.$$*******#$$$$$$$$$$$###***********$$$$$.%%%",
"&;&%%.$$$$******###$$$$$#####***********$$$$$$.%%%",
"%& %.$$$$$$********########@***********$$$$$$#.-%%",
"%%%%.#$$$$$$$==********@@@$**********$$$$$$$$#.;-%",
"%%%%.#$$$$$$$$$$$=******@***********$$$$$$$$$#.;-%",
"%%--;.#$$$$$$$$$$$$$$$$$**********=$$$$$$$$$##.-;&",
"%-;;-.#$$$$$$$$$$$$$$$@********==$$$$$$$$$$$#.&;&&",
"%-;-&.##$$$$$$$$$$$$$$@$******$$$$$$$$$$$$$##.&-&&",
"%;&&oO@##$$$$$$$$$$$$@$$$$$$$$$$$$$$$$$$$$##.o&&& ",
"%--&Ooo@###$$$$$$$$$$@$$$$$$$$$$$$$$$$$$$###.X&& %",
"%%&&&ooo@@###$$$$$$$$@$$$$$$$$$$$$$$$$$$###@X%  %%",
"%%%%&&...X@@#####$$$$@#$$$$$$$$$$$$$$$####@oX%%%%%",
"%%%%   .XXO+@@@@#####@###$$$$$$$$$#######@Ooo%%%%%",
"%%%%%  %XXOOoOoO@@@@@@@###############@@@Ooo&%%%%-",
"--%%%%%%%XXooooooo..@@@@@@@@@@@@@@@@@@Xoooo& %%%--",
";--%%%%%%%%XXoooo..XXXXXXXXO+oOooo.XXXXX.o& %%%--;",
";;-&%%%%%%%%%  ...XXXOOOXXXXooooo.XXXXXXX   %%%-;-",
"-&&& %%%--%%%%%  XXXO+++OXXXXXo..XXXOOX%%%   %%-;-",
"&-&& %%-;;--%%  %%%-+O+Oo.XXXXXXXXO--;--% %%  %%-&",
"&&& %%-;--;;&%  %%-;&&-&& %%%%%%%-;;;;&;- %--  %&&",
"&&& %%-;&&-&&& %%%&;-&&& %%%%%%%-;&&--&;& %-;&   &",
"& %%%%-;&-&&&  %%%%&&&  %%%%%%%%;-&;-&&&& %%&&&   ",
" %%%%%%&&&&&  %%%%%%  %%%----%%%%&&&&&&& %%%%  %%%",
"%%%%%%%%&&   %%%%%%%%%%%--;;;-%%%%%&&&  %%--%%%%%%",
";%%%--%%   %%%%%%-%%%%%--;&&--& %%%   %%--;-&%%%%%",
"&%%-&;&%%%%%%%%%-;;&%%%-;--&-&& %%%%%%%-;;-&&&%%%-"
};
