/* XPM */
static char *_4268488ca534d30c104b53604d25e5eXY0o3syceiahTmki[] = {
/* columns rows colors chars-per-pixel */
"50 50 64 1 ",
"  c black",
". c #020203",
"X c gray1",
"o c #040404",
"O c #060707",
"+ c #070707",
"@ c #0B0A0B",
"# c #0B0B0B",
"$ c gray6",
"% c #101010",
"& c #111010",
"* c #101011",
"= c #161616",
"- c #161617",
"; c #171617",
": c gray9",
"> c #262727",
", c #272727",
"< c gray19",
"1 c gray20",
"2 c #343434",
"3 c gray25",
"4 c #414141",
"5 c #484848",
"6 c #494848",
"7 c #484948",
"8 c #484849",
"9 c #4C4C4C",
"0 c #4C4C4D",
"q c #4D4C4D",
"w c #555554",
"e c #545555",
"r c #5F5F5E",
"t c #5F5E5F",
"y c #5E5F5F",
"u c #5F5F5F",
"i c #6A6A6A",
"p c #6B6A6A",
"a c #6A6B6A",
"s c #6A6A6B",
"d c gray46",
"f c #9A9A9A",
"g c #ADACAC",
"h c #ADADAC",
"j c #ACACAD",
"k c #B9B8B8",
"l c gray76",
"z c #CBCBCB",
"x c gray81",
"c c #DAD8D9",
"v c #D9DADB",
"b c #DADADA",
"n c #DBDADA",
"m c #E4E3E3",
"M c #E3E4E3",
"N c #E5E4E3",
"B c #E4E3E4",
"V c #E2E4E4",
"C c #E3E4E4",
"Z c #E4E5E4",
"A c #E7E7E7",
"S c #F3F2F3",
"D c #F3F3F3",
"F c #FEFEFE",
/* pixels */
"FFFFFFFFFFZa;  +-amFFFFFFFFFZa:+ +-aBFFFFFFFFFFFFF",
"FFFFFFFFFFZa-+ o-amFFFFFFFFFShq-;;qhDFFFFFFFFFFFFF",
"FFFFFFFFFFShq-;;qhSFFFFFFFFFFMhaaahZFFFFFFFFFFFFFF",
"ZZbbBbbZZSFZhaaahZSZZbbZbbZZDFDMZBDFFFDZZbbZbbZZDF",
"ar55e55rahmFDZZZSZhar65e66rahVFFFFFFFMhar65e55rahZ",
"-$+@@++*-qhSFFFFShq-*++@++&-qhDFFFFFDh9-*@+@++*-qh",
"+       +-aZFFFFZa-+       +;aZFFFFFZa:+       +-a",
"         -aZFFFFZa;         ;aZFFFFFBa-         :a",
"+       +-pZFFFFZa-X       +-aMFFFFFZa-+       +:a",
"-$++@++*-5hDFFFFShq-*++@++*;qhDFFFFFShq-*++@++*-qg",
"ar55e55rahZFFFFFFBhaa45e55rahVFFFFFFFZhsr55e55tshB",
"BMbbmbbZZDFFFFFFFFDBmbbZbbVBDFFFFFFFFFSZZbbmbbZBAZ",
"FFFFFFFFFFFFFFFFFFFFFFFFFFFFFFFFFFFFFFFFFFFFFFFZhs",
"FFFFFFFFFFFFFFFFFFFFFFFFFFFFFFFFFFFFFFFFFFFFFFShq;",
"FFFFFFFFFFFFFFFFFFFFFFFFFFFFFFFFFFFFFFFFFFFFFFZa-+",
"FFFFFDZZbbZbbZbbZZSFFFFFFFFFFDZZbbZbbZZSFFFFFFBp- ",
"FFFFMhar55e55e55rahZFFFFFFFFZhau55e55uahZFFFFFZa-+",
"FFFShq-*++@+@@++*-qhSFFFFFFDhq-*++@++%-qhSFFFFShq;",
"FFFZa-+          +-aZFFFFFFZa:+       +:aZFFFFFBha",
"FFFVa-            ;aZFFFFFFZa:         -aZFFFFFFDM",
"FFFZa-+          +-aVFFFFFFZa;+       o-amFFFFFFFF",
"FFFShq-$++#++@++$-qhSFFFFFFDhq;*++@++$-qhSFFFFFFFF",
"FFFFVhar86e55e55rahBFFFFFFFFmhau66e65rahBFFFFFFFFF",
"FFFFFDMMcbZbbVbbmVSFFFFFFFFFFDMMbbZnnZZSFFFFFFFFFF",
"FFFFFFFFFFFFFFFFFFFFFFFFFFFFFFFFFFFFFFFFFFFFFFFFFF",
"FFFFFFFFFFSZZbbVZSFFFFFFFFFFFFFDZZbbZbnmbbmbbZbbZZ",
"ZBZSFFFFFmhar68rahZFFFFFFFFFFFZhau55w55e55e55e55ra",
"aaahZFFFShq-&++*-qhSFFFFFFFFFDhq-$++@++@++@++$++&-",
";--qhSFFZa-+    +-aZFFFFFFFFFZa-+                +",
"+ +;aZFFZa;      -aZFFFFFFFFFZa-                  ",
"   -pZFFZa-+    +-aZFSBZZSFFFZa;o                +",
"+X+:aZFFSh5-*@+$-qhSBhpaahZFFShq-*++#++@++@++@++*-",
"---9hDFFFZhar68rahmDhq;;;qhSFFZgar66e55e55e55e55ua",
"aaahZFFFFFDZBbbVZDFZa- ++-aZFFFDZZbbZbbZbnVbnBbbBZ",
"mZMSFFFFFFFFFFFFFFFZa;   -amFFDmBMDFFFFFFFSBBVSFFF",
"FFFFFFFFFFFFFFFFFFFZa;+ +-aBFZhaaahMFFFFFZhaashZFF",
"FSZMbbMMDFFFFFFFFFFDh9---qhDDh9---qhSFFFDh9-;-qhDF",
"Zhar66rahZFFFFFFFFFFZhaaahZFVa-+ +:pZFFFMa-+.+-aZF",
"hq-*++*-qhDFFFFFFFFFFDmMZSFFZa;   -sZFFFMa-   -aZF",
"a;+    +-aZFFDZZZZZZZDDZmmSFZp;+ +;aBFFFBa-++o-aZF",
"a-      -aZFBhaauduaaffaaahZShq;--qhDFFFDgq;;;qhDF",
"a-@    o;aZShq--*-*--22-;-qhSZhaaahZFFFFFBgaaagVFF",
"h9-$@+*-qhSZa;o    @o@@ oo;aZFDZZZDFFFFFFDbzlklzxn",
"Mhpr55rahBFZa;   +   @+   ;aZFFFFFFFFFFFBhar31,,<4",
"DbzzxbZZSFFZp:+      @@ ++-aZFFFFFFFFFFDh9-*.    @",
"haaahZFFFFFShq--$-*:-21---9gSFFSZmZDFFFZa-+       ",
"9---qhSFFFFFZhaardraaffaaagmFFZhaaahMFFZa-        ",
"-+ X-aZFFFFFFSBBBAmZZSSmZmDFFShq;--qhDFma-+    .  ",
"-   ;pZFFFFFFFFFFFFFFFFFFFFFFZa;+  ;aZFDhq;*+    +",
";+ +;aZFFFFFFFFFFFFFFFFFFFFFFZa;  +;aZFFZhau4<>><4"
};
