/* XPM */
static char *_9852da5c74b4f1dd8125d28ddd86152LUihluTBYhW04Ffa[] = {
/* columns rows colors chars-per-pixel */
"50 50 92 1 ",
"  c #7D46EB",
". c #7E49EB",
"X c #D444BE",
"o c #DC44BB",
"O c #E644B6",
"+ c #EB45B4",
"@ c #E245B8",
"# c #9544DF",
"$ c #9C44DB",
"% c #B545CE",
"& c #BB44CC",
"* c #A544D6",
"= c #AB44D4",
"- c #A144D9",
"; c #B244D1",
": c #8545E7",
"> c #8A44E4",
", c #8245E9",
"< c #824CEC",
"1 c #9245E0",
"2 c #8652EC",
"3 c #8956ED",
"4 c #8B5AED",
"5 c #905FEE",
"6 c #8F60EE",
"7 c #9264EF",
"8 c #976AEE",
"9 c #9A6EEF",
"0 c #9C71EF",
"q c #976BF0",
"w c #996EF0",
"e c #9C72F0",
"r c #A077F1",
"t c #A37CF1",
"y c #C544C6",
"u c #CB45C4",
"i c #C245C8",
"p c #D244C0",
"a c #A681F2",
"s c #AA86F2",
"d c #AF8DF3",
"f c #B08EF4",
"g c #B393F4",
"h c #BB9DF5",
"j c #BEA3F5",
"k c #C1A5F5",
"l c #C4ABF6",
"z c #CDB6F7",
"x c #CDB7F7",
"c c #CEB9F7",
"v c #CFBBF7",
"b c #CAB3F8",
"n c #CBB5F8",
"m c #CEBAF8",
"M c #D1BDF8",
"N c #D1BEF9",
"B c #D3C1F9",
"V c #D4C2F9",
"C c #D7C7F9",
"Z c #D8C8F9",
"A c #DBCBFA",
"S c #DBCCFA",
"D c #DCCDF9",
"F c #DDCEFA",
"G c #DED1FA",
"H c #DFD2FA",
"J c #E2D6FB",
"K c #E3D9FB",
"L c #E4D9FB",
"P c #E6DBFB",
"I c #E7DDFC",
"U c #E8DEFC",
"Y c #EBE2FB",
"T c #E9E0FC",
"R c #EBE3FC",
"E c #ECE4FC",
"W c #EDE5FC",
"Q c #EEE7FC",
"! c #EFE8FC",
"~ c #F0EAFC",
"^ c #F1EBFD",
"/ c #F1EDFD",
"( c #F3EEFD",
") c #F4EFFD",
"_ c #F4F1FD",
"` c #F6F3FE",
"' c #F7F5FD",
"] c #F8F7FE",
"[ c #FAF8FE",
"{ c #FDFCFE",
"} c #FCFCFF",
"| c white",
/* pixels */
"|||||||||||||||}||||||||]`QPAMkdtw73<<.           ",
"||||||||||||||||||||||||]QJAzjft043<<. ..         ",
"|||||||||||||||||||||||'~JAzjdt9833<...          .",
"|||||||||||||||||||||['(PAbjdt0732<...    .       ",
"||||||||||||||||||||]]!PCzjftw73:,,.              ",
"|||||||||||||||||||]`^PAzhdtw732  .        .      ",
"||||||||||||||||||])QJCbjdt87322           .   . .",
"|||||||||||||||||])RPAzjft8632<.          . .     ",
"||||||||||||||||[(UHCbjdrq532<<                   ",
"||||||||||||||]]!IDMlhsrq532<<                    ",
"|||||||||||||]'EKCnlgseq53<<<.                   .",
"|||||||||||[')RHVbhgte7422<< .                  . ",
"||||||||||[`^IJBlhdtq7432..                       ",
"|||||||||')!PDMkgse8632<..                      . ",
"||||||||])EPAMkgsw74322..                         ",
"|||||||](EJAckgaw7432... .                       ,",
"||||||[_EKCmjdaq742<.<.                        ,>1",
"|||||[_YHVlhfrw7422<                          ,:1=",
"||||'(YHMlhstq732<,<                          :>1$",
"|[]'(YSBkhseq632<<                          ,,>#-=",
"|[`!IHckgse7432<<                           ,>#-;&",
"[(EPSMjdae7432<.,                          ,:#-;iu",
"`RUScjgaw6432..  .                        ,>#*;&pX",
"YJScjdt0633<2..       .                  >>#-;yXo@",
"PSckfae742<<..                          >>#*%yXo@O",
"Czjgt0742<<...                        ,:>#*;yXXO+O",
"cjdt9842<<, .                        :>#$*%uXoOOO+",
"jdte7422<<                         , >>$=&uXoOO+O+",
"dt0443<< ,                        ,:>#-=&uX@O+++++",
"ae643<..                         ,:>#-;iuX@O++++++",
"86322<..                        ,>##-%iuX@OO++++++",
"6322<...                      ,:>#$-%iuo@O++++++++",
"33.2..                       ,:>#$=;iuoOOO++++++++",
"2.... .                     ,:>#$=;ipooOO+++++++++",
"2...                        :>>$=;ipoOO+++++++++++",
"....                       ,>#-=;ipoOOO+++++++++++",
"...                       ,:#$=&yXo@OO++++++++++++",
"<.                    ,  ,>#$=&ypoOO++++++++++++++",
".                       ,>>-;&uXo@O+++++++++++++++",
"..  .                 ,:>#$=&yXo@OOO++++++++++++++",
"                     ,:>#-=&uXo@++++++++++++++++++",
"                    ,:>#-=&uXoO+++++++++++++++++++",
"                   ,:>#-=&uXoO++++++++++++++++++++",
"                   ,>#-=&uX@OO++++++++++++++++++++",
"                  ,>#-=&yXoO++++++++++++++++++++++",
"                 ,:1$=;uXoOO++++++++++++++++++++++",
"                ,,>#*;yX@OO+++++++++++++++++++++++",
"                ,>#-;iXoO++O++++++++++++++++++++++",
"                 >$;ipo@++O+++++++++++++++++++++++",
"                >$*&poOOOO++++++++++++++++++++++++"
};
