/* XPM */
static char *_00d2dc15c9a47abc458d2dc741ded967FZ7Yg5a7zbPKAFW[] = {
/* columns rows colors chars-per-pixel */
"50 50 87 1 ",
"  c None",
". c #EB7B46",
"X c #EC7B45",
"o c #EA7D44",
"O c #EB7D44",
"+ c #EB7C45",
"@ c #EB7D45",
"# c #EB7E45",
"$ c #E97D46",
"% c #EB7C46",
"& c #EA7D46",
"* c #EB7D46",
"= c #EB7C47",
"- c #EB7D47",
"; c #EA7E46",
": c #EB7E46",
"> c #EB7F46",
", c #EC7D44",
"< c #EC7C45",
"1 c #EC7D45",
"2 c #EC7D46",
"3 c #ED7D46",
"4 c #EC7D47",
"5 c #EC7E47",
"6 c #DE9446",
"7 c #DF9446",
"8 c #DF9546",
"9 c #DE9547",
"0 c #DF9547",
"q c #DF9548",
"w c #E78045",
"e c #E78445",
"r c #E78545",
"t c #E88045",
"y c #E98045",
"u c #E88145",
"i c #E98145",
"p c #EA8045",
"a c #EA8145",
"s c #EA8046",
"d c #E88445",
"f c #E48945",
"g c #E48A45",
"h c #E58846",
"j c #E48946",
"k c #E58946",
"l c #E28E45",
"z c #E38E46",
"x c #E28F46",
"c c #E09446",
"v c #D7A346",
"b c #D7A445",
"n c #D7A446",
"m c #D8A346",
"M c #D8A444",
"N c #D3AC45",
"B c #D2AC46",
"V c #D3AC46",
"C c #D2AD46",
"Z c #D3AD46",
"A c #CBBD45",
"S c #CBBC46",
"D c #CBBD46",
"F c #D0B445",
"G c #D0B446",
"H c #D0B546",
"J c #BBDD46",
"K c #BCDD46",
"L c #B6E746",
"P c #B7E746",
"I c #B7E747",
"U c #BAE046",
"Y c #BBE046",
"T c #B8E446",
"R c #B6E844",
"E c #B6E845",
"W c #B5EA45",
"Q c #B4EA46",
"! c #C8C346",
"~ c #C8C445",
"^ c #C8C446",
"/ c #C4CA45",
"( c #C4CA46",
") c #C4CB46",
"_ c #C5CB46",
"` c #C2D046",
"' c #C3D046",
/* pixels */
"                                                  ",
"                                                  ",
"                                                  ",
"                                                  ",
"                                                  ",
"                                                  ",
"                                                  ",
"                                                  ",
"                                                  ",
"                                                  ",
"                                                  ",
"                      *******                     ",
"                   **X*<<<5<*<**                  ",
"                 ***=>***********>                ",
"                *X*5.*>>*******<<<*               ",
"               *****=>>*************              ",
"              **5**********>.*****>.*             ",
"             *X5******************>=.*            ",
"             *=X*******.iiii***>****<*            ",
"            **5>*.>***wfz866zfi.>***<<*           ",
"            *<*>*****r8vNGGGNb8r****><*           ",
"            <<i<****r8NS/```)SN8d***>5<           ",
"           ***i**=.w8N!`KUUUJ)^Nqi**=.>>          ",
"           *<***>>*jvS`UTLLLUJKSbr****<*          ",
"           *<***>*izZ)JTRRQQRTK_Nc<5**5*          ",
"           *****=*i6G`YTQRQQQRY'G8i<**<*          ",
"           *<***>=i6G`YWQQQQRRU`Gqi***<*          ",
"           *<***>=i8G`JWQQQQWRU`G8i***5*          ",
"           *****=**zN/KTRRQQITK_Nc******          ",
"            .>**.**jbS`YTIRRTY`Dbj***<*           ",
"            *******iqN^`KYUUJ`^Zq****<*           ",
"            ********rcZD_```_SNqr**55i*           ",
"             ******>>r8bNHHHNbqr****<*            ",
"             *<*******irxqqqzji*****<<            ",
"              **<********iiii********             ",
"               ******************.**              ",
"                *<<5***********<*X*               ",
"                 ***<<****5<*5****                ",
"                   **<**<<s5*<**                  ",
"                      **<*5<*                     ",
"                                                  ",
"                                                  ",
"                                                  ",
"                                                  ",
"                                                  ",
"                                                  ",
"                                                  ",
"                                                  ",
"                                                  ",
"                                                  "
};
