/* XPM */
static char *_e7c7b191dc7473b9a237c8536020b1aRzp0FKvCjkohf1B2[] = {
/* columns rows colors chars-per-pixel */
"50 50 39 1 ",
"  c #672300",
". c #692300",
"X c #692201",
"o c #692501",
"O c #6A2802",
"+ c #6B2802",
"@ c #6B2902",
"# c #6D2F04",
"$ c #6F3607",
"% c #6F3707",
"& c #703607",
"* c #703707",
"= c #74410B",
"- c #75410B",
"; c #774B0F",
": c #774C0F",
"> c #784C0F",
", c #794C0F",
"< c #826618",
"1 c #826718",
"2 c #88781E",
"3 c #88791E",
"4 c #8E8623",
"5 c #8F8623",
"6 c #949628",
"7 c #959628",
"8 c #949728",
"9 c #99A32D",
"0 c #9DAF31",
"q c #A2B935",
"w c #A3B935",
"e c #AAD13D",
"r c #ADD63F",
"t c #AFDE42",
"y c #AFDE43",
"u c #B2E444",
"i c #B2E545",
"p c #B3EA46",
"a c #B4E945",
/* pixels */
".........................X.......... .............",
"...................... ..XX.......................",
"..................XX.... ............. .......... ",
"................. ..........X. ..........XX.......",
"........................X.........................",
"........................XXX...............X.. ....",
"........................X ........................",
"..................................................",
"............. .... ...X.............X........X....",
".. ..............................................X",
"................X....X.... .......................",
"................................... .............X",
"..................................................",
".......... .......... ..X .......... .............",
".....................X............................",
"..................X..................X.........X..",
"......................X.................X...X.X...",
"...o.+++++.o............................... ...X..",
".. o&-;,,-$o......... ..................X.........",
"..$,<24442<,#.... ...........X................X...",
".$;260qqw072,& ..................X................",
"o>29qerryew62,o.......X.........X.......... ......",
"$<7wryuuuyyw7<&..........................X...X....",
"$20eyuaapuye02-+..................X.. ......... ..",
",4wrupppppueq5,+............X.X................. .",
",5wruppppautq5,+............ ..........X... ......",
",4wyuapppaueq5;o.....X............................",
"=30eyuppauyt02$#........... ............. .X......",
"&<6qryuuyyew7<$......XX........................X..",
"+>29qerrttq82,X....... ...........X........ .. ...",
".#;260qqq072,#........... ..........X.............",
".o#;<24442<;#o.....................X..............",
" ..o$-,:,-$+o.........X.................. ...... .",
" ..o.+++++............ .................... ......",
"........ ................................ ..X..X..",
".................X........ ........X..X..X........",
" ...................... ..........................",
" ............................ ........... . ......",
"...................................X..... .X......",
" ............................X..........XX.......X",
"..................... .... ............. X........",
" ..............................X......X.X . ......",
" ...................... .................X........",
".... ..................... ......X.......X .......",
" ......................... .....X....... .........",
"............................ ............ . ......",
" ........... .........X... .......................",
".................X........ .............XX........",
" .......................... .............. ..X....",
".........................  .............X. ... .X."
};
