/* XPM */
static char *result[] = {
/* columns rows colors chars-per-pixel */
"50 50 14 1 ",
"  c #171D21",
". c #232424",
"X c #2C2D2D",
"o c #322A22",
"O c #372D24",
"+ c #392E26",
"@ c #3E3229",
"# c #2D3037",
"$ c #34373F",
"% c #383C3F",
"& c #42372E",
"* c #493C31",
"= c #696468",
"- c gray46",
/* pixels */
"%%##%% #########=-=%%###%%%%%%% ########%%%%% ###%",
"% ###########=####%% ######%%  ###=-#######  #####",
" ####=######-=%########==########=-%%#######==####",
"###=--=####-=%%#######==-=###=-###%%%#####==-=%###",
"##=--=-%###%%%########=-=--###=%#########==-=%%###",
"##-%%=%%####%#########=-%%-%#############=--%% ###",
"##=%=%%%#######===#####=%=%% #####==####=-%=%  ##=",
"##%%%%% ######=--==####%%%%% ####=--=###=%%%% ##=-",
"%##%%% ######=-==%=%####%%  ###=--=-=%##=%=%  #=-=",
"%###  #######=-=%=%%####  ####=-=-=%=%##==%%% #=-%",
"%##############%%%%%% ########=%%==%%%###%%%% ##%%",
"######-=######### %%% ########=%=%%%  ####%%  ####",
"#####-=%##########   ###===####%%%  ######   #####",
"####=%%###############=----=###   ################",
"###########==########=-%==%=%   ##################",
"=########==----#####=-%%%%%%  ######======#######=",
"=-#######=-====% ###*O%%    @O#####====---=######=",
"-%######=-==-%%% ###*O  ####@O######==-==-=% ###=-",
"=% #####=%%-%%% ####*O######@O######=-=%%=%% ###=-",
"%% #####=-%%%  #####*O@@@@@@@O#######-==%%%  ###%%",
"% #######%%  #####$$*OOOOOOOOO$$#######%%%% #####%",
" ###==###  #####$$$$*O......@o..$$######%%% ######",
"####--=#######$$$$..*O......+oXXXX$#######  ######",
"####=-%%#####$$$....*O....XX+oXXXXX$$#############",
"==###%=% ###$$......*o..XXXX+oXXXXXXX$############",
"%-%##%%% ##$$.......&o+++++++oXXXXXXXX#######==###",
"#% ###% ###$........&oooooooooXXXXXXXX######==-=##",
"###########$........&oXXXXXX+oXXXXXXXX#####==-=-=#",
"############......XX&oXXXXXX+oXXXXXXXX#####=--=-=#",
"##==--==#####....XXX&oXXXXXX+oXXXXXXX######=-===-%",
"#=--=--=%#####..XXXX&oXXXXXX+oXXXXXX########-%%-%%",
"#=-=%==%%#######XXXX&o+++++++oXXXX##########==%=%%",
"#-%%%==%% ########XX&oooooooooXX#############%%%% ",
"#==%=%%% ###########&oXXXXXX+o##########==####%% #",
"##%%%%%% ###=--=#######################==---##  ##",
"####%%   ##=-==---%###################==-=-%######",
"####    ##=-==%%==% ##########===#####=-%%=%%#####",
"#####  ###==%=%==%% #########=---% ###=-%=%%%####=",
"==#########%%%%%%%  ########=-%==% ####%%%%% ###==",
"-==##########%%%%  ########=-%=%%% ##### %% ###==-",
"--=%#########     ###===####%%%%% #######   ###=-=",
"=%%% ###==#####  ###=---=#####%  ###==####   ##=-=",
"%=%% ##=--==##  ###=-=-=% ########===-==# ##  ##=%",
"%%% ##=-==--%#  ##=-%%=%% #######=----%-= #==  #%%",
"%%% ##=-%%=%%% ###%-=%%% #######=-%%==%-% #=-%   %",
"% ####=-%=%%%  ####%%%  ########-=%-=%%%% ##%%%   ",
" ######%%%%%  ######  ###====####%%%%%%% ####  ###",
"########%%   ###########==---=#####%%%  ##==######",
"-###==##   ######=#####==-%%==% ###   ##==-=%#####",
"%##=%-%#########=--%###=-==%=%% #######=--=%%%###="
};
