/* XPM */
static char *ab5b829a9ee847c2e0e940c92148bc60hfBfBu46eSrieFlw[] = {
/* columns rows colors chars-per-pixel */
"50 50 19 1 ",
"  c #020202",
". c gray4",
"X c #222222",
"o c gray19",
"O c #303130",
"+ c #303031",
"@ c #575657",
"# c gray34",
"$ c #FE0000",
"% c #8E8E8E",
"& c gray67",
"* c #ECECEC",
"= c #EDECEC",
"- c #F7F6F6",
"; c #F6F7F6",
": c gray97",
"> c #FDFDFC",
", c #FDFCFD",
"< c white",
/* pixels */
"<<<<<<<<,<<<<<<<<<<<<<<<,<<<<<<<<<<<<<<<<<<<<<<<<<",
"<<<<<<<<<<<<<<<<<<<<<<<<<<<<<<<<<<<<<<<<<<<<<<<,<<",
"<<<<<<<<<<<<<<<<<<<<<<<<<<<<,<<<<<<<<<<<<,<<,<<<<<",
"<<<<<<<<<<,<<<<<<<<<<<<<<<<<<<<<,<<<<,<<<<<<<<<<<<",
"<<<<<<<<<<<<<<<<,<<<<<<<<<<,<<<<<<<<<<<<<<<<<<<<<<",
"<<<<<<<<<<<<<<<<<<<<<<<<<<<<<<<<<<<<<<<<<<<<<<<<<<",
"<<<<<<<<<<<<<<<<<<<<<<<<<<<<<<<<<<<<<<<<<<<<<<<<,<",
"<<<<<<<<,<<<<<<<<<<<<<<<<<<<,<<<<<<<<<<,<<<<<<,<<<",
"<<<<<<<<<<<<<,<<<<<<<<<:***;<<<<<<<<<<<<<<<<,<<<<<",
"<<<<<<<<<<<<<<<<<<<<<<*&%%%&*,<<<<,<<<<<<<<<<<<<<<",
"<<<<<<<<<<<<<<<<<<<<<*%@ooo@%*<<<<<<<<<<<,<<<<<<<<",
"<<<<,<<<<<,<<<<<<<<<;&@X...X@&;<<<,<<<<<<<<<<<<<<<",
"<<<<<<,<<<<<<<<<<<<<*%o$ $ .o%*<<<<<<<<<<<<<<<<><<",
"<<<<<<<<<<<<<<<<<,<<*%o.   .o%*<,<<<<<<<<<<<<<<<<<",
"<<<<<<<<<<<<<<<,<<<<*%O$$$$$o%*<<<<<<<<<<<<<<<<<<<",
"<<<<<<<,<<<<<<<<<<<<;&@X...X@&;<,<<<<<<<<<,<<<<<<<",
"<<<<<<<<<<<<<<<<<<<<<*%@ooo@%*<<<<,<<<<<<<<<<<><<<",
"<<<<><<<<<<<<<,<<<<<<>*&%%%&*,<<<<<<<<<<<<<<<<<<<<",
"<<<<<<<<<<<<<<<<<,<<<<<;* *;<<<<<<<<<<<<<<<,<<<<<<",
"<<<<<<<<<<<<<<<<<<<<<<<<< <<<<<<<<<<<<<<<<<<<<<<<<",
"<<<<<<<<<<<<<<<<<<<<<<<<< <<><<<<,<<<<<<<<<<<<<<<<",
",<<<<<<<<<<<<<<<<<<<<<<<< <<<<<<<<<<<<<<<<<<<<<<<<",
"<<<,<<<<<<<><<<<<<<<<<<<<     <<<<<<<<<,<<<<<<<><<",
"<<<<<,<<<<<<<<<,<<<<<<,    << <<<<<<<<<<<<<<<<<<<<",
"<<<<<<<<<<<<<<<<<<<<<<  < <<<<<<<<<<<<<<,<<<<<<<<<",
"<<<<<<,<,<<<<<<<<<<<<<  <  <<<<<<<<<<<<<<<<<<><<<<",
"<,<<<<<<<<<<<<<<<<<<<<<<<  <><<<<,<<<<<<<<<<<<<<<<",
"<<<<<<<<<<<<<<<<<<<<><<< < <<<<<<<<<<<<<<<<<<<<<<<",
"<<<<<<<<<,<<<,<<<<<<<<< <<< <<<<,<<<<<,<<<<<<<<<<<",
"<<<<<<<<<<<<<<<<><<<<<< <<< <<<<<<<<<<<<<<<<<<<<><",
"<<<<<<<<<<<<<<<<<<<<<< <<<<,<<<<<<,<<<,<<<<<<<<<<<",
"<<<<<<<<<<<<<<<<<<<<<< <<<<<<<><<<<<<<<<<<<<<<<<<<",
"<<<<<<<<,<<<<<,<<<<<<<<<<<<,<<<,<<<<<<<<<<<<<,<<<<",
"<<<<<<<<<<<<<<<<<,<<<<<<<<<<<<<<<<<,,<<<<<<<<<<<<<",
"<<,<<<<<<<<<<><<<<<<<<<<<<<<<<<<<<<<<<<<<<<<<<<<<<",
"<<<<<<<<<<<<<<<<<<<<<,<<<,<<<<<<<<<<<<<,<<<<<<<<<,",
"<<<<<<<<<<<<<<<<<<<<<<<<<<<<<<<<<<<,<<<<<<,<<<<<<<",
"<<,<<<<<<<<<<<<<<<<<<<<<<<<,<<<<,<<<<<<<<<<<<<<<<<",
"<<<<<<<<><<<<<<<<<<<<<<<<<<<<,<<<<<<<<<<<<<<<<<<<<",
"<<<<<<<<<<<<<<<<<<<<<<<<<<<<<<<<<<<<<<<<<<<<<<<<<<",
"<<<<<,<<<<<<<<<><<<<<<<,<<<<,<<<<<<<<<<<<<<<<<<<><",
"<<<<<<<<<<<<<<<<<<<<<<<<<<<<<<<<<<<<<<<<<<<<<<<<<<",
"<<<<<<<<<<<<<<<<,<<<<<,<<<<<<<<<<<<<<<<<<<<>,<<<<<",
"<<<<<<<<<<<<<<<<<<<<<<<<<<<<<<<<<<<<<<<<<<<<<<<<<<",
"<<<<<<,<<<<<<<<<<<<,<<<<<<<<<<<<<<<<<><<<<<<<<<<<>",
"<<<<<<<<<<<<<<<<<<<<<<<<<<<<<<<<><<<<<<<<<<<<<<<<<",
"<<<,<<,<<<<,<<<<<<<<<<,<<<<<<<,<<<<<<<<<<<><<<<<<<",
"<<<<<<<<<<<<<<<<<<<<<,<<<<<<<<<<,<<<<<<<<<<<<<<<<<",
"<<<<<<<<<<<,<<<<<<<<<<<<<<,<<<<<<<<<<<<<<<<<<<<<<,",
"<<<<<<<<<<<<<<<<<<<<<<<<<<<<<<<<<<<<<<<<<<<<<<<<<<"
};
